<svg xmlns="http://www.w3.org/2000/svg" width="1280" height="720" viewBox="0 0 1280 720">
  <rect width="1280" height="720" fill="#020617"/>
  <text x="640" y="70" fill="#818cf8" font-family="Arial, sans-serif" font-size="34" font-weight="700" text-anchor="middle">Link-Up Architecture</text>
  <rect x="120" y="180" width="280" height="180" rx="18" fill="#0f172a" stroke="#334155"/>
  <text x="260" y="250" fill="#60a5fa" font-family="Arial, sans-serif" font-size="24" font-weight="700" text-anchor="middle">link-up-web</text>
  <text x="260" y="285" fill="#94a3b8" font-family="Arial, sans-serif" font-size="15" text-anchor="middle">React + Vite + Redux</text>
  <text x="260" y="315" fill="#64748b" font-family="Arial, sans-serif" font-size="13" text-anchor="middle">Feed, Requests, Chat UI</text>
  <rect x="880" y="180" width="280" height="180" rx="18" fill="#0f172a" stroke="#334155"/>
  <text x="1020" y="250" fill="#c084fc" font-family="Arial, sans-serif" font-size="24" font-weight="700" text-anchor="middle">link-up API</text>
  <text x="1020" y="285" fill="#94a3b8" font-family="Arial, sans-serif" font-size="15" text-anchor="middle">Express + Node.js</text>
  <text x="1020" y="315" fill="#64748b" font-family="Arial, sans-serif" font-size="13" text-anchor="middle">Auth, Feed, Socket.IO</text>
  <line x1="400" y1="270" x2="520" y2="270" stroke="#6366f1" stroke-width="3"/>
  <line x1="760" y1="270" x2="880" y2="270" stroke="#6366f1" stroke-width="3"/>
  <rect x="520" y="245" width="240" height="50" rx="10" fill="#1e293b" stroke="#475569"/>
  <text x="640" y="277" fill="#e2e8f0" font-family="Arial, sans-serif" font-size="14" text-anchor="middle">REST + JWT Cookies</text>
  <line x1="640" y1="360" x2="640" y2="430" stroke="#22c55e" stroke-width="3"/>
  <polygon points="640,430 630,410 650,410" fill="#22c55e"/>
  <rect x="500" y="430" width="280" height="140" rx="18" fill="#0f172a" stroke="#166534"/>
  <text x="640" y="495" fill="#4ade80" font-family="Arial, sans-serif" font-size="24" font-weight="700" text-anchor="middle">MongoDB</text>
  <text x="640" y="530" fill="#94a3b8" font-family="Arial, sans-serif" font-size="15" text-anchor="middle">Users, Requests, Chats</text>
</svg>
